<?xml version="1.0" encoding="UTF-8"?>
<!DOCTYPE svg PUBLIC "-//W3C//DTD SVG 1.1//EN" "http://www.w3.org/Graphics/SVG/1.1/DTD/svg11.dtd">
<svg version="1.1" xmlns="http://www.w3.org/2000/svg" xmlns:xlink="http://www.w3.org/1999/xlink" x="0" y="0" width="65" height="65" viewBox="0, 0, 217.288, 218.368">
  <g id="Layer_1" transform="translate(-197.356, -286.816)">
    <path d="M404.306,351.168 C380.721,330.239 355.061,330.985 355.061,330.985 C390.259,341.107 406.914,365.242 413.868,384.519 C414.38,388.807 414.644,393.171 414.644,397.597 C414.644,425.636 404.075,451.204 386.705,470.539 C414.904,408.753 397.515,357.051 356.16,346.522 C381.819,361.422 383.909,386.78 377.02,403.137 C363.253,435.821 325.503,445.999 311.003,487.532 C311.003,487.532 308.526,464.981 334.024,436.432 C334.024,436.432 285.661,461.862 285.373,505.184 C271.546,501.973 267.434,484.625 274.197,470.43 C274.197,470.429 260.531,481.019 260.003,497.171 C250.754,492.165 247.317,479.682 251.51,468.813 C261.038,444.11 293.128,435.273 306.054,413.133 C310.262,426.961 283.935,442.907 289.127,462.78 C292.719,447.811 309.353,433.637 322.173,420.486 C337.225,405.045 341.501,384.283 321.903,364.051 C362.967,380.269 343.134,422.715 343.134,422.715 C370.447,397.136 356.441,368.319 343.572,355.005 C352.807,340.433 342.641,325.627 333.979,323.865 C357.25,313.644 396.353,328.438 404.306,351.168 z M326.451,504.763 C331.582,459.994 386.313,448.498 388.056,405.88 C397.037,440.73 353.991,464.652 351.53,496.615 C343.638,500.294 335.232,503.052 326.451,504.763 z M232.699,479.339 C230.706,477.564 228.778,475.717 226.92,473.803 C228.954,468.016 232.119,462.287 236.781,456.876 C234.439,464.062 233.064,471.641 232.699,479.339 z M205.634,442.525 C199.214,426.213 207.242,404.241 211.253,397.766 C211.253,397.766 204.304,402.841 197.356,414.749 C199.518,391.193 212.294,377.023 220.978,370.479 C220.978,370.479 206.037,374.699 198.361,384.165 C207.172,363.362 219.889,352.989 230.655,349.543 C226.456,336.237 228.122,318.779 239.919,309.946 C236.159,317.783 232.627,330.373 239.648,343.847 C239.648,343.847 232.647,307.386 271.533,292.086 C271.533,292.086 243.674,309.843 249.193,340.489 C252.118,325.639 260.137,293.365 306.108,286.816 C306.108,286.816 264.381,296.501 261.18,339.69 C265.805,322.313 290.255,280.943 351.327,294.877 C351.327,294.877 286.1,288.485 274.536,338.777 C285.786,316.127 334.983,287.107 382.142,317.877 C368.042,312.176 323.683,297.41 297.693,334.295 C335.272,314.077 350.317,354.284 327.353,354.87 C333.763,351.995 332.577,344.968 332.577,344.968 C330.307,350.646 325.486,349.405 325.486,349.405 C327.016,344.614 319.211,339.863 319.211,339.863 C326.239,337.907 332.183,342.528 332.183,342.528 C330.578,334.072 316.259,331.62 305.717,338.936 C295.908,336.235 288.746,341.763 288.746,341.763 C309.493,345.091 324.977,366.934 310.057,385.632 C310.057,385.632 315.037,368.631 301.452,360.64 C301.452,360.64 308.188,374.453 299.855,378.791 C291.521,383.129 282.132,380.624 276.61,385.472 C276.61,385.472 277.594,377.878 290.265,375.252 C290.265,375.252 270.859,370.8 265.608,392.604 C265.608,392.604 284.006,404.99 269.908,417.938 C269.908,417.938 272.914,408.585 267.092,402.307 C267.092,402.307 269.272,419.351 253.97,420.018 C238.668,420.686 231.019,412.467 236.84,405.389 C242.662,398.311 246.823,398.288 248.599,394.43 C250.597,390.092 246.543,388.836 246.543,388.836 C246.543,388.836 233.073,397.797 213.895,390.948 C213.895,390.948 209.9,394.772 214.123,398.197 C218.347,401.621 231.004,404.898 227.358,412.049 C223.434,419.749 214.329,416.693 211.8,410.642 C211.8,410.642 208.634,423.084 223.822,428.334 C223.822,428.334 226.522,420.985 234.945,423.349 C243.368,425.714 256.388,435.834 265.493,429.704 C265.493,429.704 262.526,440.549 247.914,443.517 C233.303,446.485 226.75,433.887 226.75,433.887 C226.75,433.887 223.914,439.572 226.821,446.39 C223.493,451.096 220.707,456.247 218.561,461.657 C215.891,456.119 211.687,444.036 212.539,423.945 C212.539,423.945 206.473,432.776 205.634,442.525 z M229.025,374.511 C234.961,366.463 239.412,364.491 238.842,362.609 C238.272,360.726 229.596,360.697 229.596,360.697 C231.074,362.904 229.479,366.054 230.052,368.812 C230.509,371.009 229.025,374.511 229.025,374.511 z M285.038,362.526 C285.038,362.526 282.588,358.549 274.314,358.525 C266.041,358.501 259.103,361.783 255.679,361.783 C255.679,361.783 260.099,363.332 260.245,364.408 C260.39,365.485 256.649,368.061 254.309,374.797 C255.45,373.54 257.009,370.807 267.283,370.008 C277.557,369.209 277.368,362.867 285.038,362.526" fill="#FFFFFF"/>
  </g>
</svg>
