<svg width="60" height="60" viewBox="0 0 24 24" fill="none" xmlns="http://www.w3.org/2000/svg" data-reactroot="">
<path fill="#f5a623" d="M12 22C17.5228 22 22 17.5228 22 12C22 6.47715 17.5228 2 12 2C6.47715 2 2 6.47715 2 12C2 17.5228 6.47715 22 12 22Z" undefined="1"></path>
<path fill="#f5a623" d="M19.3299 18.79C18.0899 15.97 15.2799 14 11.9999 14C8.71992 14 5.90992 15.97 4.66992 18.79C6.49992 20.76 9.09992 22 11.9999 22C14.8999 22 17.4999 20.76 19.3299 18.79Z" undefined="1"></path>
<path stroke-linecap="square" stroke-miterlimit="10" stroke-width="1" stroke="white" d="M19.3299 18.79C18.0899 15.97 15.2799 14 11.9999 14C8.71992 14 5.90992 15.97 4.66992 18.79"></path>
<path fill="#f5a623" d="M12 14C14.2091 14 16 12.2091 16 10C16 7.79086 14.2091 6 12 6C9.79086 6 8 7.79086 8 10C8 12.2091 9.79086 14 12 14Z" undefined="1"></path>
<path stroke-linecap="square" stroke-miterlimit="10" stroke-width="1" stroke="white" d="M12 14C14.2091 14 16 12.2091 16 10C16 7.79086 14.2091 6 12 6C9.79086 6 8 7.79086 8 10C8 12.2091 9.79086 14 12 14Z"></path>
</svg>
